<?xml version="1.0" encoding="UTF-8" standalone="no"?>
<!-- Created with Inkscape (http://www.inkscape.org/) -->

<svg
   width="256"
   height="256"
   viewBox="0 0 67.733332 67.733333"
   version="1.1"
   id="svg1"
   xml:space="preserve"
   inkscape:version="1.4 (86a8ad7, 2024-10-11)"
   sodipodi:docname="HayStacker.svg"
   inkscape:export-filename="HayStacker.png"
   inkscape:export-xdpi="9"
   inkscape:export-ydpi="9"
   xmlns:inkscape="http://www.inkscape.org/namespaces/inkscape"
   xmlns:sodipodi="http://sodipodi.sourceforge.net/DTD/sodipodi-0.dtd"
   xmlns="http://www.w3.org/2000/svg"
   xmlns:svg="http://www.w3.org/2000/svg"><sodipodi:namedview
     id="namedview1"
     pagecolor="#ffffff"
     bordercolor="#111111"
     borderopacity="1"
     inkscape:showpageshadow="0"
     inkscape:pageopacity="0"
     inkscape:pagecheckerboard="1"
     inkscape:deskcolor="#d1d1d1"
     inkscape:document-units="mm"
     inkscape:zoom="3.1168846"
     inkscape:cx="150.63118"
     inkscape:cy="116.30203"
     inkscape:window-width="2560"
     inkscape:window-height="1417"
     inkscape:window-x="-8"
     inkscape:window-y="-8"
     inkscape:window-maximized="1"
     inkscape:current-layer="layer1" /><defs
     id="defs1" /><g
     inkscape:label="Layer 1"
     inkscape:groupmode="layer"
     id="layer1"><circle
       style="fill:#ffffff;stroke:none;stroke-width:2.53957"
       id="path2"
       cx="33.866665"
       cy="33.866665"
       r="31.383694" /><circle
       style="fill:#d4aa00;stroke:none;stroke-width:2.24784"
       id="path2-4-7"
       cx="33.866665"
       cy="33.866665"
       r="27.778444" /><circle
       style="fill:#e6e6e6;stroke:none;stroke-width:2.06396"
       id="path2-4"
       cx="33.866665"
       cy="33.866665"
       r="25.506035" /><path
       style="fill:#1a1a1a;stroke-width:1.30627"
       d="M 28.723643,65.522407 C 18.085916,63.590429 9.3064596,56.805004 4.7863833,47.021894 2.7551979,42.625659 2.0844563,39.366219 2.0844563,33.891996 c 0,-3.937241 0.1457155,-5.38158 0.7822046,-7.753253 C 6.5493955,12.416212 18.183065,2.779754 31.977788,2.0252727 47.277418,1.1884826 60.592272,10.73461 64.855736,25.597222 c 0.678858,2.36653 0.793141,3.561713 0.793141,8.294774 0,6.436716 -0.545887,8.928286 -3.104614,14.170241 -3.923499,8.037911 -11.759954,14.482481 -20.396822,16.774006 -3.103399,0.823393 -10.567453,1.20492 -13.423798,0.686164 z M 42.419897,64.333228 C 56.284586,60.244431 65.453025,48.201937 65.464477,34.064804 65.476177,19.619109 56.521535,7.7121742 42.419897,3.4225612 39.72143,2.6017083 38.804054,2.4969282 34.198282,2.4835097 30.408311,2.4724717 28.379294,2.6277445 26.653871,3.0608684 16.036503,5.7260906 7.5733706,13.434065 4.0963325,23.605619 1.7861729,30.363643 1.7463969,37.193413 3.9783377,43.866252 7.6306625,54.785628 16.841385,62.8664 28.058017,64.991891 c 4.083416,0.773785 10.502913,0.479376 14.36188,-0.658663 z M 27.977201,62.546009 C 18.830534,60.51314 11.515753,54.702357 7.569249,46.334159 5.402668,41.740123 4.8502675,39.212314 4.8502675,33.891996 c 0,-5.320316 0.5524005,-7.848127 2.7189815,-12.442162 5.107272,-10.829503 15.769674,-17.2551678 27.647987,-16.6619751 7.547709,0.3769263 13.131827,2.7232 18.553879,7.7957711 6.20186,5.802113 9.286072,12.974563 9.286072,21.595096 0,8.180932 -3.213518,15.389625 -9.439198,21.174388 -3.765772,3.499069 -7.366977,5.482177 -12.528649,6.899262 -2.965481,0.814143 -10.055754,0.972924 -13.112139,0.293633 z m 11.484732,-0.34091 C 45.25654,61.00819 50.140714,58.396444 54.26118,54.291393 58.434144,50.134044 61.091382,45.232374 62.216094,39.617367 63.065141,35.378593 62.767035,29.373092 61.511572,25.424414 57.386175,12.449235 45.471625,4.2708946 31.978085,5.1521484 24.749795,5.6242229 18.499441,8.5055947 13.363469,13.73336 9.7616043,17.399598 7.6932008,20.923165 6.1549868,26.01314 c -0.8060963,2.667387 -0.9187733,3.63364 -0.9187733,7.878856 0,4.246616 0.112548,5.211052 0.9198629,7.882617 2.8747931,9.513228 9.7582386,16.61537 18.9963576,19.599897 4.496397,1.452635 9.805938,1.760826 14.309499,0.830589 z M 30.050895,61.702212 C 23.866085,60.751349 18.49359,58.021331 14.108279,53.601013 9.3983019,48.853438 6.7213924,43.256212 6.0873048,36.829729 5.2338309,28.17977 8.0163244,20.323564 14.108279,14.182981 20.219811,8.0226629 28.825948,4.9670783 37.082728,6.0259683 48.678939,7.5131216 57.826446,15.399171 61.051205,26.689151 c 1.106834,3.87506 1.103566,10.541646 -0.0071,14.431487 -2.324039,8.139563 -7.686094,14.541823 -15.094913,18.023236 -1.710799,0.803904 -4.12941,1.710565 -5.374692,2.014801 -2.867088,0.70046 -7.834234,0.957008 -10.523628,0.543537 z M 40.87366,60.649459 C 51.33424,57.97428 59.290784,49.372861 61.146048,38.734001 c 0.665436,-3.815891 0.665436,-5.868117 0,-9.684009 C 59.657318,20.512987 54.030917,12.970978 46.228286,9.0532114 45.241244,8.5576096 43.063865,7.7441634 41.389667,7.245553 38.860954,6.4924505 37.643605,6.3366906 34.198282,6.3254092 28.055084,6.305297 23.706649,7.5525798 18.751726,10.75603 7.3243306,18.144054 3.0749648,33.314272 8.9558376,45.727305 c 1.5540034,3.28011 2.9514634,5.273892 5.4425104,7.764938 4.491353,4.491354 9.880208,7.026897 17.035008,8.015246 1.924361,0.265827 6.766749,-0.174298 9.440304,-0.85803 z M 29.832993,59.639336 C 19.785144,58.041715 11.571532,50.543068 8.7416926,40.383955 7.7421394,36.795563 7.7407518,31.228098 8.7384223,27.457403 11.152565,18.33359 18.415571,11.026616 27.45873,8.6237721 c 3.435199,-0.9127623 9.783317,-0.8449834 13.240298,0.1413672 8.879385,2.5334797 15.44671,9.0205357 18.264974,18.0417367 1.167598,3.737453 1.167598,10.432786 0,14.17024 -2.79701,8.953171 -9.427333,15.543676 -18.082032,17.973449 -2.902751,0.814934 -8.184716,1.144201 -11.049025,0.688771 z m 10.413563,-0.872159 c 7.011932,-1.66247 13.598611,-7.078093 16.802891,-13.815481 1.823809,-3.834783 2.36137,-6.352493 2.36137,-11.0597 0,-4.707206 -0.537561,-7.224918 -2.36137,-11.0597 C 54.587074,17.654859 50.445988,13.466959 45.286542,10.936417 41.255081,8.9591148 38.715122,8.378223 34.025474,8.3610015 29.200033,8.3432835 26.825336,8.9046122 22.274543,11.138687 c -2.776912,1.363242 -3.765267,2.096187 -6.407738,4.751849 -3.571019,3.588851 -5.574593,6.995862 -6.7678307,11.508476 -0.9783116,3.699794 -0.9783116,9.286175 0,12.985967 2.1134357,7.99263 8.4437157,14.860297 16.3521587,17.740316 4.227304,1.539459 9.960552,1.788189 14.795423,0.641882 z"
       id="path1"
       sodipodi:nodetypes="ssssssssssssssssssssssssssssssssssssssssssssssscssssssssssssssccscssssscssssssssssss" /><g
       id="g4"
       transform="matrix(1.4707626,0,0,1.4707626,-10.189473,-13.826631)"><path
         style="fill:#b3b3b3;fill-opacity:1"
         d="m 27.734477,35.685832 c 0.566982,-0.894232 4.099115,-6.403581 4.120748,-6.427461 0.03663,-0.04043 2.775477,0.638046 2.811602,0.696497 0.01835,0.02969 -0.146979,0.261494 -0.367393,0.515124 l -0.400753,0.461147 -0.03617,-0.215844 c -0.05389,-0.321626 -0.158899,-0.475606 -0.403495,-0.591674 -0.282132,-0.13388 -0.479474,-0.131553 -0.685413,0.0081 -0.09055,0.0614 -1.283072,1.393818 -2.650051,2.960938 -1.366979,1.567119 -2.527681,2.892528 -2.579338,2.945352 -0.05166,0.05282 0.03396,-0.105649 0.19026,-0.352162 z M 15.546092,32.532385 c -0.07964,-0.101555 -0.07738,-0.103819 0.02417,-0.02417 0.06163,0.04833 0.112051,0.09876 0.112051,0.112051 0,0.0527 -0.05258,0.01878 -0.136226,-0.08788 z m 0.328314,-1.32077 c 0,-0.0133 0.05042,-0.06372 0.112052,-0.112052 0.101554,-0.07964 0.103819,-0.07738 0.02417,0.02417 -0.08365,0.106657 -0.136226,0.140575 -0.136226,0.08788 z m 23.865529,-0.470243 c 0.113667,-0.01414 0.315359,-0.01438 0.448205,-5.17e-4 0.132846,0.01386 0.03985,0.02543 -0.206667,0.02572 -0.246513,2.84e-4 -0.355206,-0.01106 -0.241538,-0.0252 z M 40.2576,29.271168 c 0.04622,-0.0185 0.101446,-0.01622 0.122723,0.0051 0.02128,0.02128 -0.01654,0.03641 -0.08404,0.03363 -0.07459,-0.0031 -0.08976,-0.01825 -0.03868,-0.03869 z m -5.974743,-0.911977 c -0.774756,-0.200056 -1.447405,-0.377516 -1.494776,-0.394357 -0.09844,-0.035 9.897991,-15.682887 10.271252,-16.078074 0.122732,-0.129941 0.388038,-0.317227 0.58957,-0.416191 0.310885,-0.152664 0.444058,-0.179595 0.878657,-0.177691 0.618639,0.0027 1.065376,0.182683 1.494937,0.602247 0.382302,0.373406 0.538236,0.751656 0.572986,1.38989 0.02526,0.463916 0.0095,0.563021 -0.142346,0.894675 -0.09391,0.205133 -0.218044,0.425227 -0.275846,0.489098 -0.100138,0.110651 -0.124912,0.09687 -0.525251,-0.292227 -0.231086,-0.224595 -0.555318,-0.515858 -0.720516,-0.64725 -0.19449,-0.15469 -0.287523,-0.272345 -0.263942,-0.333796 0.03027,-0.07889 0.05986,-0.07288 0.175379,0.03565 0.162126,0.152309 0.476294,0.228676 0.704811,0.171322 0.195167,-0.04898 0.462178,-0.325411 0.514081,-0.532212 0.102967,-0.410253 -0.259226,-0.990091 -0.774167,-1.239369 -0.82445,-0.399109 -2.068085,0.20617 -3.020455,1.470061 -0.863754,1.146287 -1.109876,2.440193 -0.604137,3.176052 0.202598,0.294783 0.75788,0.608279 1.07742,0.608279 0.534674,0 1.531886,-0.476716 1.680775,-0.803492 0.222622,-0.488603 -0.134028,-1.05336 -0.665209,-1.05336 h -0.169559 l 0.182387,-0.213802 0.182387,-0.213801 0.192088,0.133498 c 0.105649,0.07342 0.376292,0.308005 0.60143,0.52129 l 0.409342,0.38779 -4.732047,5.439151 c -2.602626,2.991532 -4.796553,5.522272 -4.875392,5.623866 -0.383291,0.493914 0.0891,1.268655 0.70052,1.148869 l 0.21262,-0.04166 -0.272125,0.297039 c -0.149668,0.163371 -0.272125,0.326495 -0.272125,0.362498 0,0.0999 -0.116983,0.0774 -1.632749,-0.313992 z M 45.07181,27.245932 c 0,-0.01102 0.09364,-0.104663 0.208095,-0.208096 l 0.208096,-0.18806 -0.18806,0.208095 c -0.175299,0.193975 -0.228131,0.237527 -0.228131,0.188061 z m -19.925147,-0.08773 c 0.04622,-0.0185 0.101446,-0.01622 0.122723,0.0051 0.02128,0.02128 -0.01654,0.03641 -0.08404,0.03363 -0.07459,-0.0031 -0.08976,-0.01825 -0.03868,-0.03869 z M 48.795624,22.14362 c 0,-0.08804 0.01453,-0.124057 0.0323,-0.08004 0.01776,0.04402 0.01776,0.116053 0,0.160073 -0.01776,0.04402 -0.0323,0.008 -0.0323,-0.08004 z m -0.0051,-0.933762 c 0.0031,-0.07459 0.01825,-0.08976 0.03869,-0.03869 0.0185,0.04622 0.01622,0.101447 -0.0051,0.122723 -0.02128,0.02128 -0.03641,-0.01654 -0.03363,-0.08404 z m -1.472676,-0.128059 c 0.0031,-0.07459 0.01825,-0.08976 0.03869,-0.03869 0.0185,0.04622 0.01622,0.101447 -0.0051,0.122723 -0.02128,0.02128 -0.03641,-0.01654 -0.03363,-0.08404 z m -7.863444,-7.754578 c 0.0623,-0.01623 0.148738,-0.01517 0.192088,0.0024 0.04335,0.01754 -0.0076,0.03082 -0.11327,0.02952 -0.105648,-0.0013 -0.141117,-0.01566 -0.07882,-0.03189 z m 0.414972,0.002 c 0.04402,-0.01776 0.116054,-0.01776 0.160074,0 0.04402,0.01776 0.008,0.0323 -0.08004,0.0323 -0.08804,0 -0.124057,-0.01453 -0.08004,-0.0323 z m -0.288132,-1.476132 c 0.09685,-0.01467 0.255317,-0.01467 0.352162,0 0.09684,0.01467 0.01761,0.02667 -0.176081,0.02667 -0.193689,0 -0.272925,-0.012 -0.176081,-0.02667 z"
         id="path10" /><path
         style="fill:#91d1f3"
         d="m 15.784425,32.610665 c -0.270395,-0.14101 -0.353895,-0.28246 -0.356188,-0.603381 -0.0019,-0.263928 0.02517,-0.311364 0.366133,-0.641818 0.869391,-0.842607 2.398575,-1.911541 3.676467,-2.569932 2.936044,-1.512699 6.226534,-1.948526 10.297948,-1.363968 1.45019,0.208213 4.926895,0.967299 5.858689,1.279157 0.322316,0.107875 1.848971,0.389482 2.401102,0.442908 0.228905,0.02215 0.67551,0.067 0.992456,0.09966 2.144482,0.221021 3.908111,-0.226314 5.44116,-1.380121 1.384578,-1.042063 2.500014,-2.932734 2.820716,-4.781133 0.127901,-0.737165 0.128056,-2.164398 3.15e-4,-2.885881 -0.211963,-1.197164 -0.69877,-2.398478 -1.38734,-3.423595 -0.45254,-0.673724 -1.730209,-1.938859 -2.36947,-2.346225 -0.183961,-0.117228 -0.185698,-0.123392 -0.08117,-0.288132 0.165547,-0.260913 0.354766,-0.453993 0.635238,-0.6482 l 0.257243,-0.178123 0.340995,0.22755 c 1.081424,0.721647 2.419306,2.337029 3.104802,3.748793 0.667485,1.374672 0.965669,2.726626 0.96277,4.365166 -0.0022,1.265439 -0.105623,1.940983 -0.447246,2.922439 -1.433508,4.118364 -4.844478,6.400997 -9.075651,6.073456 -1.765772,-0.13669 -3.036028,-0.359972 -5.45277,-0.958472 -3.562929,-0.88235 -4.690054,-1.068815 -6.851145,-1.13341 -1.870574,-0.05591 -3.212019,0.125984 -4.896577,0.663957 -1.671989,0.533959 -3.453786,1.549265 -4.867906,2.773836 -0.854562,0.740017 -0.994237,0.80172 -1.370569,0.605464 z M 32.610929,15.808963 c -0.37771,-0.16094 -0.532985,-0.725812 -0.285872,-1.039965 0.205025,-0.260648 1.390119,-1.014007 2.362138,-1.5016 1.970384,-0.988404 4.151479,-1.487023 5.746486,-1.313701 0.340826,0.03704 0.63437,0.08202 0.65232,0.09997 0.01795,0.01795 -0.140889,0.300214 -0.352975,0.627255 l -0.385612,0.594619 -0.814715,0.04295 c -0.448094,0.02362 -0.890596,0.06265 -0.983338,0.08674 -0.09274,0.02408 -0.255063,0.05716 -0.360711,0.07352 -1.283575,0.198708 -3.657388,1.263953 -4.784046,2.146834 -0.256903,0.201317 -0.577649,0.275424 -0.793675,0.183376 z"
         id="path9" /><path
         style="fill:#010101"
         d="m 21.272911,44.739361 c -0.284866,-0.08232 -0.468241,-0.337731 -0.468241,-0.652177 0,-0.231583 0.477959,-1.002815 4.771885,-7.699887 l 4.771885,-7.442526 0.714853,0.154607 c 0.393169,0.08503 0.719446,0.161111 0.725059,0.169061 0.0056,0.008 -0.980758,1.555961 -2.191936,3.440026 -1.211179,1.884065 -2.232956,3.483199 -2.270615,3.553632 -0.117838,0.220389 0.144109,-0.07149 2.729467,-3.041396 1.364209,-1.56712 2.556556,-2.913995 2.649661,-2.993057 0.282912,-0.240239 0.862845,-0.143442 1.03178,0.172217 0.10144,0.189542 0.07825,0.597588 -0.04396,0.773659 -0.278403,0.401088 -11.810163,13.496616 -11.910273,13.52537 -0.06238,0.01792 -0.156628,0.04762 -0.209453,0.06601 -0.05282,0.01839 -0.187874,0.0069 -0.300111,-0.02554 z m 14.530092,-16.78641 c -0.37521,-0.217421 -0.470833,-0.728773 -0.200267,-1.070947 0.584381,-0.739044 9.514236,-10.938266 9.565118,-10.924787 0.09327,0.02471 0.799539,0.952991 0.799987,1.05146 3.48e-4,0.07646 -9.099767,10.585949 -9.399277,10.854988 -0.167205,0.150195 -0.577808,0.198082 -0.765561,0.08929 z m -3.996218,-0.188939 -0.619219,-0.12837 0.272477,-0.424948 c 0.149862,-0.233721 2.213503,-3.450336 4.585868,-7.148034 2.372366,-3.697697 4.62582,-7.212911 5.007676,-7.811586 0.78826,-1.235836 1.170776,-1.661808 1.779537,-1.981702 1.401106,-0.7362609 3.001905,-0.5101364 4.166581,0.58856 1.20728,1.138887 1.413874,3.096615 0.471212,4.465318 -0.424902,0.616939 -0.403145,0.614808 -0.83942,0.08222 -0.510691,-0.623435 -0.497258,-0.586479 -0.316984,-0.872051 0.263597,-0.417565 0.379068,-0.862059 0.342451,-1.318232 -0.142291,-1.772647 -2.241634,-2.608268 -3.556943,-1.415803 -0.143404,0.13001 -2.250439,3.357221 -5.327562,8.159887 -4.05702,6.332053 -5.116332,7.943629 -5.218396,7.938965 -0.07043,-0.0032 -0.406707,-0.06362 -0.747278,-0.134221 z M 42.217972,16.904124 c -0.346515,-0.162775 -0.642276,-0.534119 -0.735754,-0.923776 -0.289727,-1.207719 0.799187,-3.133112 2.221922,-3.928751 0.524986,-0.293589 1.193211,-0.372575 1.564108,-0.184882 0.966324,0.48901 1.016474,1.690678 0.07076,1.695538 -0.22494,0.0012 -0.314037,-0.03556 -0.473699,-0.195225 -0.230883,-0.230883 -0.328237,-0.221285 -0.778132,0.07671 -0.544101,0.360397 -1.15727,1.304118 -1.237896,1.905229 -0.04239,0.316012 0.0229,0.332742 0.39769,0.101904 0.582603,-0.358835 1.184544,-0.09871 1.184544,0.51189 0,0.363304 -0.132847,0.51374 -0.712592,0.806941 -0.525509,0.265771 -1.109915,0.318108 -1.500952,0.134419 z"
         id="path4" /></g></g></svg>
